<?xml version="1.0" encoding="utf-8"?>
<!-- Generator: Adobe Illustrator 27.2.0, SVG Export Plug-In . SVG Version: 6.00 Build 0)  -->
<svg version="1.1" id="Layer_1" xmlns="http://www.w3.org/2000/svg" xmlns:xlink="http://www.w3.org/1999/xlink" x="0px" y="0px"
	 viewBox="0 0 31.9 32" style="enable-background:new 0 0 31.9 32;" xml:space="preserve">
<style type="text/css">
	.st0{fill:#063CD0;}
	.st1{fill:#1B98E0;}
</style>
<g>
	<g>
		<path class="st0" d="M15.9,0.1C7.1,0.1,0,7.2,0,16c0,8.8,7.1,15.9,15.9,15.9c8.8,0,15.9-7.1,15.9-15.9C31.9,7.2,24.7,0.1,15.9,0.1
			z M6.3,25.1v-7.3h12.1l7,7.3H6.3z M18.4,14.7h-12V6.9h19.1L18.4,14.7z"/>
		<polygon points="18.4,17.7 25.4,25.1 6.3,25.1 6.3,17.7 		"/>
		<polygon points="18.4,14.7 6.3,14.7 6.3,6.9 25.4,6.9 		"/>
	</g>
	<g>
		<polygon class="st1" points="18.4,17.7 25.4,25.1 6.3,25.1 6.3,17.7 		"/>
		<polygon class="st1" points="18.4,14.7 6.3,14.7 6.3,6.9 25.4,6.9 		"/>
	</g>
</g>
</svg>
