<?xml version="1.0" encoding="UTF-8"?>
<svg id="Layer_2" data-name="Layer 2" xmlns="http://www.w3.org/2000/svg" viewBox="0 0 63.48 63.48">
  <defs>
    <style>
      .cls-1 {
        fill: #1b98e0;
      }

      .cls-2 {
        fill: #063cd0;
      }
    </style>
  </defs>
  <g id="main">
    <g>
      <g>
        <path class="cls-2" d="m31.74,0C14.21,0,0,14.21,0,31.74s14.21,31.74,31.74,31.74,31.74-14.21,31.74-31.74S49.27,0,31.74,0ZM12.61,49.82v-14.6h24.08l13.97,14.6H12.61Zm23.93-20.6H12.61v-15.55h38.05l-14.12,15.55Z"/>
        <polygon points="36.69 35.22 50.66 49.82 12.61 49.82 12.61 35.22 36.69 35.22"/>
        <polygon points="36.54 29.22 12.61 29.22 12.61 13.67 50.66 13.67 36.54 29.22"/>
      </g>
      <g>
        <polygon class="cls-1" points="36.69 35.22 50.66 49.82 12.61 49.82 12.61 35.22 36.69 35.22"/>
        <polygon class="cls-1" points="36.54 29.22 12.61 29.22 12.61 13.67 50.66 13.67 36.54 29.22"/>
      </g>
    </g>
  </g>
</svg>